<?xml version="1.0" encoding="UTF-8" standalone="no"?>
<!-- Created with Inkscape (http://www.inkscape.org/) -->

<svg
   xmlns:dc="http://purl.org/dc/elements/1.1/"
   xmlns:cc="http://creativecommons.org/ns#"
   xmlns:rdf="http://www.w3.org/1999/02/22-rdf-syntax-ns#"
   xmlns:svg="http://www.w3.org/2000/svg"
   xmlns="http://www.w3.org/2000/svg"
   xmlns:sodipodi="http://sodipodi.sourceforge.net/DTD/sodipodi-0.dtd"
   xmlns:inkscape="http://www.inkscape.org/namespaces/inkscape"
   width="108mm"
   height="108mm"
   viewBox="0 0 108 108"
   version="1.1"
   id="svg8"
   inkscape:version="0.92.3 (2405546, 2018-03-11)"
   sodipodi:docname="logo.svg">
  <defs
     id="defs2" />
  <sodipodi:namedview
     id="base"
     pagecolor="#ffffff"
     bordercolor="#666666"
     borderopacity="1.0"
     inkscape:pageopacity="0.0"
     inkscape:pageshadow="2"
     inkscape:zoom="1.979899"
     inkscape:cx="221.62694"
     inkscape:cy="202.83465"
     inkscape:document-units="mm"
     inkscape:current-layer="layer1"
     showgrid="false"
     fit-margin-top="0"
     fit-margin-left="0"
     fit-margin-right="0"
     fit-margin-bottom="0"
     inkscape:window-width="1916"
     inkscape:window-height="1041"
     inkscape:window-x="0"
     inkscape:window-y="18"
     inkscape:window-maximized="0" />
  <metadata
     id="metadata5">
    <rdf:RDF>
      <cc:Work
         rdf:about="">
        <dc:format>image/svg+xml</dc:format>
        <dc:type
           rdf:resource="http://purl.org/dc/dcmitype/StillImage" />
        <dc:title></dc:title>
      </cc:Work>
    </rdf:RDF>
  </metadata>
  <g
     inkscape:label="Layer 1"
     inkscape:groupmode="layer"
     id="layer1"
     transform="translate(-51,-94.5)">
    <g
       id="g130"
       transform="matrix(1.153817,0,0,1.153817,-16.150789,-20.145037)">
      <g
         id="g93">
        <path
           style="fill:#009900;stroke:#000000;stroke-width:0.76195443"
           d="m 112.35318,176.71508 0.47622,-4.57172 7.42905,-0.57147 c 3.52404,-0.19049 4.38124,-4.19075 4.286,-6.38137 -0.0953,-2.09537 -1.52391,-4.57172 -2.95258,-6.85759 l -9.25393,0.0881 -0.28574,-4.0955 -6.57185,11.6198 6.95283,10.85785"
           id="path77"
           inkscape:connector-curvature="0" />
        <path
           style="fill:#009900;stroke:#000000;stroke-width:0.76195443"
           d="m 125.76738,167.85022 8.09577,-14.28665 c 0.8572,-2.38111 -0.28573,-5.14319 -2.00013,-7.71478 l -4.38124,-7.04808 -11.6198,7.23856 8.19101,13.33421 c 1.42866,2.00013 2.66684,4.9527 1.61915,8.47674 z"
           id="path62"
           inkscape:connector-curvature="0" />
      </g>
      <rect
         ry="0.225416"
         y="115.81682"
         x="77.604874"
         height="26.994225"
         width="54.790253"
         id="rect73"
         style="opacity:1;fill:#ffffff;fill-opacity:1;stroke:#000000;stroke-width:1;stroke-linejoin:miter;stroke-miterlimit:4;stroke-dasharray:none;stroke-opacity:1" />
      <g
         style="fill:#e6e6e6;stroke:#b3b3b3"
         id="g97">
        <path
           style="fill:#e6e6e6;stroke:#b3b3b3;stroke-width:0.76195443"
           d="m 125.97311,128.1405 -4.28599,1.80964 -4.09551,-6.19088 c -1.80964,-2.95257 -5.8099,-1.80964 -7.61954,-0.66671 -1.80964,1.14293 -3.23831,3.61928 -4.57173,5.90515 l 4.57173,8.09576 -3.52404,2.19062 13.3342,0.19049 z"
           id="path81"
           inkscape:connector-curvature="0" />
        <path
           style="fill:#e6e6e6;stroke:#b3b3b3;stroke-width:0.76195443"
           d="m 111.59122,120.80668 -16.477265,-0.19049 c -2.476352,0.38097 -4.381239,2.76208 -5.809903,5.52417 l -4.000261,7.23856 12.000784,6.66711 7.714795,-13.61994 c 1.04768,-2.19062 3.04781,-4.76222 6.57185,-5.52417"
           id="path79"
           inkscape:connector-curvature="0" />
      </g>
      <path
         inkscape:connector-curvature="0"
         id="path99"
         d="m 77.604873,115.81682 27.414497,10.60927 27.37576,-10.60927"
         style="fill:none;stroke:#000000;stroke-width:1;stroke-linecap:butt;stroke-linejoin:miter;stroke-opacity:1" />
      <path
         sodipodi:nodetypes="cc"
         inkscape:connector-curvature="0"
         id="path101"
         d="M 132.39513,142.81103 116.52951,121.93846"
         style="fill:none;stroke:#000000;stroke-width:1;stroke-linecap:butt;stroke-linejoin:miter;stroke-opacity:1" />
      <path
         style="fill:none;stroke:#000000;stroke-width:1;stroke-linecap:butt;stroke-linejoin:miter;stroke-opacity:1"
         d="m 77.604874,142.81104 15.86562,-20.87257"
         id="path103"
         inkscape:connector-curvature="0"
         sodipodi:nodetypes="cc" />
      <g
         id="g89">
        <path
           style="fill:#009900;stroke:#000000;stroke-width:0.76195443"
           d="m 76.160338,138.61736 3.619284,2.85733 -3.428795,6.57186 c -1.714398,3.04781 1.238175,6.00039 3.143062,7.04808 1.809641,1.04768 4.762215,1.14293 7.429055,1.14293 l 4.85746,-7.90528 3.619284,2.00013 -6.286124,-11.71505 -12.857982,0.0952"
           id="path85"
           inkscape:connector-curvature="0" />
        <path
           style="fill:#009900;stroke:#000000;stroke-width:0.76195443"
           d="m 76.827048,154.80885 7.810033,14.47714 c 1.619153,2.00013 4.571727,2.47635 7.619545,2.38111 h 8.286254 v -13.71518 l -15.71531,-0.0952 c -2.476352,0.19049 -5.619414,-0.38098 -8.095766,-3.04782"
           id="path83"
           inkscape:connector-curvature="0" />
      </g>
    </g>
  </g>
</svg>
